<svg xmlns="http://www.w3.org/2000/svg" width="1280" height="400" viewBox="0 0 1280 400" role="img" aria-labelledby="title desc">
  <title id="title">Football Team Organizer</title>
  <desc id="desc">Matchday ready. Record fixtures, results, players, and goals for your youth football team.</desc>
  <defs>
    <linearGradient id="hero" x1="8%" y1="0%" x2="92%" y2="100%">
      <stop offset="0%" stop-color="#123528"/>
      <stop offset="52%" stop-color="#146C4A"/>
      <stop offset="100%" stop-color="#9ED63F"/>
    </linearGradient>
  </defs>

  <rect width="1280" height="400" fill="url(#hero)"/>

  <g fill="none" stroke="#ffffff" stroke-opacity="0.18" transform="translate(720, 28) scale(1.45)">
    <rect x="12" y="12" width="336" height="196" rx="10" stroke-width="2.5"/>
    <line x1="180" y1="12" x2="180" y2="208" stroke-width="2"/>
    <circle cx="180" cy="110" r="32" stroke-width="2"/>
    <circle cx="180" cy="110" r="3.5" fill="#ffffff" fill-opacity="0.18" stroke="none"/>
    <rect x="12" y="58" width="52" height="104" stroke-width="2"/>
    <rect x="12" y="82" width="22" height="56" stroke-width="2"/>
    <rect x="296" y="58" width="52" height="104" stroke-width="2"/>
    <rect x="326" y="82" width="22" height="56" stroke-width="2"/>
    <path d="M64 86a36 36 0 0 1 0 48" stroke-width="2"/>
    <path d="M296 86a36 36 0 0 0 0 48" stroke-width="2"/>
  </g>

  <svg x="64" y="44" width="48" height="48" viewBox="0 0 100 100" aria-hidden="true">
    <text y=".9em" font-size="90">⚽</text>
  </svg>

  <rect x="64" y="108" width="168" height="28" rx="14" fill="#C6EB63" fill-opacity="0.22"/>
  <text x="148" y="127" text-anchor="middle" fill="#C6EB63" font-family="ui-sans-serif, system-ui, Segoe UI, Helvetica, Arial, sans-serif" font-size="13" font-weight="700" letter-spacing="2.4">MATCHDAY READY</text>

  <text x="64" y="196" fill="#F4F9F3" font-family="Arial Narrow, Franklin Gothic Medium, Helvetica Neue, sans-serif" font-size="52" font-weight="700" letter-spacing="-1.2">Football Team</text>
  <text x="64" y="252" fill="#F4F9F3" font-family="Arial Narrow, Franklin Gothic Medium, Helvetica Neue, sans-serif" font-size="52" font-weight="700" letter-spacing="-1.2">Organizer</text>

  <text x="64" y="304" fill="#ffffff" fill-opacity="0.82" font-family="ui-sans-serif, system-ui, Segoe UI, Helvetica, Arial, sans-serif" font-size="20">Record fixtures, results, players, and goals</text>
  <text x="64" y="334" fill="#ffffff" fill-opacity="0.82" font-family="ui-sans-serif, system-ui, Segoe UI, Helvetica, Arial, sans-serif" font-size="20">for your youth football team.</text>
</svg>
